ffmpeg version 3.4.8-0ubuntu0.2 Copyright (c) 2000-2020 the FFmpeg developers
  built with gcc 7 (Ubuntu 7.5.0-3ubuntu1~18.04)
  configuration: --prefix=/usr --extra-version=0ubuntu0.2 --toolchain=hardened --libdir=/usr/lib/x86_64-linux-gnu --incdir=/usr/include/x86_64-linux-gnu --enable-gpl --disable-stripping --enable-avresample --enable-avisynth --enable-gnutls --enable-ladspa --enable-libass --enable-libbluray --enable-libbs2b --enable-libcaca --enable-libcdio --enable-libflite --enable-libfontconfig --enable-libfreetype --enable-libfribidi --enable-libgme --enable-libgsm --enable-libmp3lame --enable-libmysofa --enable-libopenjpeg --enable-libopenmpt --enable-libopus --enable-libpulse --enable-librubberband --enable-librsvg --enable-libshine --enable-libsnappy --enable-libsoxr --enable-libspeex --enable-libssh --enable-libtheora --enable-libtwolame --enable-libvorbis --enable-libvpx --enable-libwavpack --enable-libwebp --enable-libx265 --enable-libxml2 --enable-libxvid --enable-libzmq --enable-libzvbi --enable-omx --enable-openal --enable-opengl --enable-sdl2 --enable-libdc1394 --enable-libdrm --enable-libiec61883 --enable-chromaprint --enable-frei0r --enable-libopencv --enable-libx264 --enable-shared
  libavutil      55. 78.100 / 55. 78.100
  libavcodec     57.107.100 / 57.107.100
  libavformat    57. 83.100 / 57. 83.100
  libavdevice    57. 10.100 / 57. 10.100
  libavfilter     6.107.100 /  6.107.100
  libavresample   3.  7.  0 /  3.  7.  0
  libswscale      4.  8.100 /  4.  8.100
  libswresample   2.  9.100 /  2.  9.100
  libpostproc    54.  7.100 / 54.  7.100
[rawvideo @ 0x5611c42f7a20] Estimating duration from bitrate, this may be inaccurate
Input #0, rawvideo, from '../../SVC-Encoder-20220109T061506Z-001/SVC-Encoder/Dataset/RollerCoaster/6f_2x2/tile_yuv/f1_t0_480x480.yuv':
  Duration: 00:00:10.00, start: 0.000000, bitrate: 82944 kb/s
    Stream #0:0: Video: rawvideo (I420 / 0x30323449), yuv420p, 480x480, 82944 kb/s, 30 tbr, 30 tbn, 30 tbc
Stream mapping:
  Stream #0:0 -> #0:0 (rawvideo (native) -> h264 (libx264))
Press [q] to stop, [?] for help
[libx264 @ 0x5611c4304c60] using cpu capabilities: MMX2 SSE2Fast LZCNT SSSE3 SSE4.2 AVX
[libx264 @ 0x5611c4304c60] profile High, level 3.0
Output #0, rawvideo, to 'RollerCoaster_f1_t0_480x480_x264_QP_24.h264':
  Metadata:
    encoder         : Lavf57.83.100
    Stream #0:0: Video: h264 (libx264), yuv420p, 480x480, q=-1--1, 30 fps, 30 tbn, 30 tbc
    Metadata:
      encoder         : Lavc57.107.100 libx264
    Side data:
      cpb: bitrate max/min/avg: 0/0/0 buffer size: 0 vbv_delay: -1
frame=  111 fps=0.0 q=30.0 PSNR=Y:nan U:nan V:nan *:nan size=     140kB time=00:00:02.26 bitrate= 505.8kbits/s speed=4.53x    frame=  186 fps=186 q=30.0 PSNR=Y:nan U:nan V:nan *:nan size=     256kB time=00:00:04.76 bitrate= 440.0kbits/s speed=4.76x    frame=  263 fps=175 q=30.0 PSNR=Y:nan U:nan V:nan *:nan size=     256kB time=00:00:07.33 bitrate= 286.0kbits/s speed=4.88x    frame=  300 fps=153 q=30.0 LPSNR=Y:inf U:inf V:inf *:inf size=     506kB time=00:00:09.93 bitrate= 417.0kbits/s speed=5.08x    
video:506kB audio:0kB subtitle:0kB other streams:0kB global headers:0kB muxing overhead: 0.000000%
[libx264 @ 0x5611c4304c60] frame I:2     Avg QP:22.41  size: 26868  PSNR Mean Y:43.76 U:49.26 V:52.01 Avg:45.07 Global:44.97
[libx264 @ 0x5611c4304c60] frame P:76    Avg QP:23.72  size:  4656  PSNR Mean Y:41.77 U:48.49 V:50.92 Avg:43.18 Global:43.14
[libx264 @ 0x5611c4304c60] frame B:222   Avg QP:29.44  size:   497  PSNR Mean Y:41.07 U:48.38 V:50.91 Avg:42.52 Global:42.51
[libx264 @ 0x5611c4304c60] consecutive B-frames:  1.0%  0.7%  1.0% 97.3%
[libx264 @ 0x5611c4304c60] mb I  I16..4: 13.1% 77.3%  9.6%
[libx264 @ 0x5611c4304c60] mb P  I16..4:  0.5%  0.8%  0.2%  P16..4: 35.2% 18.3% 12.4%  0.0%  0.0%    skip:32.6%
[libx264 @ 0x5611c4304c60] mb B  I16..4:  0.0%  0.0%  0.0%  B16..8: 32.6%  3.0%  0.3%  direct: 0.2%  skip:63.8%  L0:31.0% L1:62.9% BI: 6.0%
[libx264 @ 0x5611c4304c60] 8x8 transform intra:68.2% inter:60.1%
[libx264 @ 0x5611c4304c60] coded y,uvDC,uvAC intra: 67.6% 65.4% 19.3% inter: 8.3% 4.0% 0.0%
[libx264 @ 0x5611c4304c60] i16 v,h,dc,p: 22% 36% 21% 21%
[libx264 @ 0x5611c4304c60] i8 v,h,dc,ddl,ddr,vr,hd,vl,hu:  8% 20% 21%  4%  8%  7% 15%  5% 11%
[libx264 @ 0x5611c4304c60] i4 v,h,dc,ddl,ddr,vr,hd,vl,hu: 12% 19% 17%  5% 11%  9% 13%  4%  9%
[libx264 @ 0x5611c4304c60] i8c dc,h,v,p: 48% 28% 12% 11%
[libx264 @ 0x5611c4304c60] Weighted P-Frames: Y:0.0% UV:0.0%
[libx264 @ 0x5611c4304c60] ref P L0: 64.5% 19.0% 13.3%  3.2%
[libx264 @ 0x5611c4304c60] ref B L0: 87.1% 11.6%  1.4%
[libx264 @ 0x5611c4304c60] ref B L1: 85.6% 14.4%
[libx264 @ 0x5611c4304c60] PSNR Mean Y:41.263 U:48.412 V:50.921 Avg:42.707 Global:42.675 kb/s:414.27
